<svg viewBox="0 0 62 404" fill="none" xmlns="http://www.w3.org/2000/svg">
<rect x="54.8554" y="0.503449" width="10.5092" height="61.7502" transform="rotate(52.137 54.8554 0.503449)" fill="#BA8C63"/>
<rect x="3" y="39" width="15" height="358" fill="#BA8C63"/>
<path d="M46 4.60001C32.4 12.9 2.7 36.2 1.8 39.2C1.5 40.5 1.2 121.5 1.1 219.2L1 396.8L3.6 399.9C7.3 404.3 12.7 404.3 16.4 399.9L19 396.8L19.1 374.2C19.1 361.7 19.1 282.6 19 198.4L18.9 45.2L28.7 37.3C34.1 32.9 43 26 48.5 21.8C61.5 12 62.3 11.1 61.5 6.80001C60.6 2.10001 59.8 1.10001 56.5 0.500006C54.1 0.100006 51.9 1.00001 46 4.60001ZM57.5 5.40001C59.3 6.70001 59.3 6.90001 57.8 9.20001C56.5 11.1 36 27.1 17.3 40.7L14 43.1L13.8 219.8L13.5 396.5L10.6 396.8C9 397 7.3 396.7 6.8 396.2C5.6 395 4.9 53.6 6 45.1C6.6 40.3 7.3 39.2 11.6 35.1C14.3 32.6 19.2 28.5 22.5 26C25.8 23.5 31.2 19.3 34.5 16.8C51.3 3.60001 53.5 2.50001 57.5 5.40001Z" fill="black"/>
</svg>
