<svg viewBox="0 0 16 55" fill="none" xmlns="http://www.w3.org/2000/svg">
<g clip-path="url(#clip0_1:3)">
<rect x="4.29457" y="3.16122" width="10.1298" height="47.6931" transform="rotate(1.79121 4.29457 3.16122)" fill="#BA8C63"/>
<g clip-path="url(#clip1_1:3)">
<path d="M9.1181 0.238526C3.91789 0.150334 2.52198 1.95351 1.60033 10.0356C0.639313 18.3978 0.329315 40.4186 1.02348 46.657C1.59615 52.2357 4.90273 55.1282 9.58099 54.3576C14.919 53.4655 15.7721 50.4435 15.7751 34.1635C15.757 26.1635 15.7146 16.3036 15.7854 12.2434C15.8656 3.54321 14.0984 0.367217 9.1181 0.238526ZM12.7456 21.1703C13.866 47.7479 13.2941 51.3092 7.97237 50.5613C5.73165 50.2463 5.5511 50.0067 4.96216 46.0681C3.96594 38.9303 4.87587 8.06818 6.21046 5.68514C7.2661 3.76274 7.88532 3.42133 9.66655 3.95729C10.8876 4.41452 11.9095 5.2722 12.031 5.93193C12.0727 6.65183 12.3883 13.5511 12.7456 21.1703Z" fill="black"/>
</g>
</g>
<defs>
<clipPath id="clip0_1:3">
<rect width="16" height="55" fill="white"/>
</clipPath>
<clipPath id="clip1_1:3">
<rect width="49" height="41" fill="white" transform="translate(10.1276 -4.40378) rotate(53)"/>
</clipPath>
</defs>
</svg>
